# xmcd
#
# Track frame offsets: 
#        182
#        11102
#        25040
#        38482
#        51452
#        64365
#        79400
#        92182
#        105807
#        119182
#        134232
#        147752
#        161007
#        174572
#        187097
#        200942
#        213935
#
# Disc length: 3021 seconds
#
# Revision: 1
# Processed by: cddbd v1.5.2PL0 Copyright (c) Steve Scherf et al.
# Submitted via: ExactAudioCopy v0.99pb4
#
DISCID=050bcb11
DTITLE=Various Artist - Grand Prix der Volksmusik 2001 - Deutsche Vorentschei
DTITLE=dung
DYEAR=2001
DGENRE=Volksmusik
TTITLE0=Orchester Erich Becht - So schön ist Volksmusik
TTITLE1=Mara Kayser - Endlich Sonne
TTITLE2=Mühlenhof Musikanten - Wenn jeder Mensch ein Englein wär
TTITLE3=Nirwana - Freiheit für die Welt
TTITLE4=Gabi Lukas - Über allem steht die Liebe
TTITLE5=Rendezvous - Du bist meine Melodie
TTITLE6=Sissy Brandl - Was ist das 
TTITLE7=Johannes Kalpers - Ein Lächeln für die ganze Welt
TTITLE8=Daniela Merk - Dies bisschen Zärtlichkeit
TTITLE9=Judith and Mel - Alles wird gut
TTITLE10=Iija Martin - Miteinander gehen
TTITLE11=Himmelsstürmer - Ich bin wieder zu Hause
TTITLE12=Oliver Thomas - Zigeunergeigen 
TTITLE13=Mark Bender -  L.I.E.B.E.
TTITLE14=Donato Plögert - Wo sind die schönen Lieder hin
TTITLE15=Reiner Kirsten - Da war Musik in allen Herzen
TTITLE16=Christine Nachbauer - Guten Abend Herr Denninger
EXTD=
EXTT0=
EXTT1=
EXTT2=
EXTT3=
EXTT4=
EXTT5=
EXTT6=
EXTT7=
EXTT8=
EXTT9=
EXTT10=
EXTT11=
EXTT12=
EXTT13=
EXTT14=
EXTT15=
EXTT16=
PLAYORDER=
